<svg width="50" height="50" viewBox="0 0 50 50" fill="none" xmlns="http://www.w3.org/2000/svg">
<path d="M10.9375 3.125C8.8655 3.125 6.87836 3.9481 5.41323 5.41323C3.9481 6.87836 3.125 8.8655 3.125 10.9375V32.8125C3.125 34.8845 3.9481 36.8716 5.41323 38.3368C6.87836 39.8019 8.8655 40.625 10.9375 40.625H17.1625C17.3928 40.3152 17.6456 40.0227 17.9188 39.75L20.1687 37.5H10.9375C9.6943 37.5 8.50201 37.0061 7.62294 36.1271C6.74386 35.248 6.25 34.0557 6.25 32.8125V15.625H37.5V15.7063C38.5389 15.5953 39.587 15.5995 40.625 15.7188V10.9375C40.625 8.8655 39.8019 6.87836 38.3368 5.41323C36.8716 3.9481 34.8845 3.125 32.8125 3.125H10.9375ZM27.9094 21.0125L26.1063 19.2062C25.961 19.061 25.7885 18.9457 25.5987 18.8671C25.4089 18.7885 25.2054 18.748 25 18.748C24.7946 18.748 24.5911 18.7885 24.4013 18.8671C24.2115 18.9457 24.039 19.061 23.8937 19.2062C23.7485 19.3515 23.6332 19.524 23.5546 19.7138C23.476 19.9036 23.4355 20.1071 23.4355 20.3125C23.4355 20.5179 23.476 20.7214 23.5546 20.9112C23.6332 21.101 23.7485 21.2735 23.8937 21.4188L26.2219 23.7438C26.6719 22.7875 27.2344 21.8687 27.9094 21.0125ZM19.8563 21.4188C20.0015 21.2735 20.1168 21.101 20.1954 20.9112C20.274 20.7214 20.3145 20.5179 20.3145 20.3125C20.3145 20.1071 20.274 19.9036 20.1954 19.7138C20.1168 19.524 20.0015 19.3515 19.8563 19.2062C19.711 19.061 19.5385 18.9457 19.3487 18.8671C19.1589 18.7885 18.9554 18.748 18.75 18.748C18.5446 18.748 18.3411 18.7885 18.1513 18.8671C17.9615 18.9457 17.789 19.061 17.6437 19.2062L11.3937 25.4562C11.2482 25.6014 11.1328 25.7738 11.054 25.9636C10.9753 26.1535 10.9347 26.357 10.9347 26.5625C10.9347 26.768 10.9753 26.9715 11.054 27.1614C11.1328 27.3512 11.2482 27.5236 11.3937 27.6688L17.6437 33.9188C17.9371 34.2121 18.3351 34.377 18.75 34.377C19.1649 34.377 19.5629 34.2121 19.8563 33.9188C20.1496 33.6254 20.3145 33.2274 20.3145 32.8125C20.3145 32.3976 20.1496 31.9996 19.8563 31.7062L14.7094 26.5625L19.8563 21.4188ZM40.2875 18.825C41.4313 18.9563 41.7594 20.325 40.9438 21.1437L37.8969 24.1906C37.0134 25.0741 36.517 26.2724 36.517 27.5219C36.517 28.1405 36.6389 28.7532 36.8756 29.3247C37.1124 29.8963 37.4594 30.4157 37.8969 30.8531C38.3343 31.2906 38.8537 31.6376 39.4253 31.8744C39.9968 32.1111 40.6095 32.233 41.2281 32.233C42.4776 32.233 43.6759 31.7366 44.5594 30.8531L47.6063 27.8062C48.4219 26.9906 49.7937 27.3187 49.925 28.4625C50.1426 30.3197 49.883 32.2017 49.1706 33.9306C48.4582 35.6594 47.3166 37.178 45.8537 38.3428C44.3909 39.5075 42.6551 40.2798 40.8106 40.5868C38.9661 40.8937 37.0737 40.7251 35.3125 40.0969L26.7938 48.6187C26.3563 49.0562 25.8369 49.4032 25.2654 49.64C24.6938 49.8767 24.0812 49.9986 23.4625 49.9986C22.8438 49.9986 22.2312 49.8767 21.6596 49.64C21.0881 49.4032 20.5687 49.0562 20.1312 48.6187C19.6938 48.1813 19.3468 47.6619 19.11 47.0904C18.8733 46.5188 18.7514 45.9062 18.7514 45.2875C18.7514 44.6688 18.8733 44.0562 19.11 43.4846C19.3468 42.9131 19.6938 42.3937 20.1312 41.9562L28.65 33.4375C28.0216 31.676 27.853 29.7834 28.1601 27.9385C28.4671 26.0937 29.2398 24.3577 30.4049 22.8948C31.57 21.4318 33.089 20.2903 34.8184 19.5781C36.5477 18.866 38.4301 18.6068 40.2875 18.825Z" fill="white"/>
</svg>
