<svg width="14" height="14" viewBox="0 0 14 14" fill="none" xmlns="http://www.w3.org/2000/svg">
<path d="M0.583252 12.25L6.99992 1.16667L13.4166 12.25H0.583252ZM6.99992 10.5C7.1652 10.5 7.30384 10.444 7.41584 10.332C7.52784 10.22 7.58364 10.0816 7.58325 9.91667C7.58325 9.75139 7.52725 9.61295 7.41525 9.50134C7.30325 9.38973 7.16481 9.33373 6.99992 9.33334C6.83464 9.33334 6.6962 9.38934 6.58459 9.50134C6.47297 9.61334 6.41697 9.75178 6.41659 9.91667C6.41659 10.0819 6.47259 10.2206 6.58459 10.3326C6.69659 10.4446 6.83503 10.5004 6.99992 10.5ZM6.41659 8.75H7.58325V5.83334H6.41659V8.75Z" fill="#FF3131"/>
</svg>
